<mxfile host="app.diagrams.net" modified="2023-12-21T06:38:24.190Z" agent="Mozilla/5.0 (Windows NT 10.0; Win64; x64) AppleWebKit/537.36 (KHTML, like Gecko) Chrome/120.0.0.0 Safari/537.36" etag="Z0OpmNQMrJExW8g1Ou9a" version="22.1.11" type="device">
  <diagram id="kgpKYQtTHZ0yAKxKKP6v" name="Page-1">
    <mxGraphModel dx="1050" dy="557" grid="1" gridSize="9" guides="1" tooltips="1" connect="1" arrows="1" fold="1" page="1" pageScale="1" pageWidth="1169" pageHeight="827" math="0" shadow="0">
      <root>
        <mxCell id="0" />
        <mxCell id="1" parent="0" />
        <mxCell id="JAmDgZQMTbnzkT7CP5Jv-24" style="edgeStyle=orthogonalEdgeStyle;rounded=0;orthogonalLoop=1;jettySize=auto;html=1;" parent="1" source="JAmDgZQMTbnzkT7CP5Jv-12" edge="1">
          <mxGeometry relative="1" as="geometry">
            <mxPoint x="525" y="254" as="targetPoint" />
          </mxGeometry>
        </mxCell>
        <mxCell id="Q69quws3nkiRGvcaCu4i-5" style="edgeStyle=orthogonalEdgeStyle;rounded=0;orthogonalLoop=1;jettySize=auto;html=1;" edge="1" parent="1" source="JAmDgZQMTbnzkT7CP5Jv-12">
          <mxGeometry relative="1" as="geometry">
            <mxPoint x="279" y="254" as="targetPoint" />
          </mxGeometry>
        </mxCell>
        <mxCell id="JAmDgZQMTbnzkT7CP5Jv-12" value="Host Machine" style="rounded=0;whiteSpace=wrap;html=1;" parent="1" vertex="1">
          <mxGeometry x="345" y="224" width="120" height="60" as="geometry" />
        </mxCell>
        <mxCell id="JAmDgZQMTbnzkT7CP5Jv-26" style="edgeStyle=orthogonalEdgeStyle;rounded=0;orthogonalLoop=1;jettySize=auto;html=1;" parent="1" source="JAmDgZQMTbnzkT7CP5Jv-13" edge="1">
          <mxGeometry relative="1" as="geometry">
            <mxPoint x="525" y="254" as="targetPoint" />
          </mxGeometry>
        </mxCell>
        <mxCell id="JAmDgZQMTbnzkT7CP5Jv-13" value="FTP Server" style="whiteSpace=wrap;html=1;aspect=fixed;" parent="1" vertex="1">
          <mxGeometry x="485" y="334" width="80" height="80" as="geometry" />
        </mxCell>
        <mxCell id="JAmDgZQMTbnzkT7CP5Jv-21" value="" style="edgeStyle=orthogonalEdgeStyle;rounded=0;orthogonalLoop=1;jettySize=auto;html=1;" parent="1" source="JAmDgZQMTbnzkT7CP5Jv-14" edge="1">
          <mxGeometry relative="1" as="geometry">
            <mxPoint x="275" y="254" as="targetPoint" />
          </mxGeometry>
        </mxCell>
        <mxCell id="JAmDgZQMTbnzkT7CP5Jv-14" value="Apache Container&lt;br&gt;" style="whiteSpace=wrap;html=1;aspect=fixed;" parent="1" vertex="1">
          <mxGeometry x="235" y="334" width="80" height="80" as="geometry" />
        </mxCell>
        <mxCell id="Q69quws3nkiRGvcaCu4i-1" value="port 80" style="text;html=1;strokeColor=none;fillColor=none;align=center;verticalAlign=middle;whiteSpace=wrap;rounded=0;" vertex="1" parent="1">
          <mxGeometry x="225" y="264" width="60" height="30" as="geometry" />
        </mxCell>
        <mxCell id="Q69quws3nkiRGvcaCu4i-2" value="port 21" style="text;html=1;strokeColor=none;fillColor=none;align=center;verticalAlign=middle;whiteSpace=wrap;rounded=0;" vertex="1" parent="1">
          <mxGeometry x="525" y="264" width="60" height="30" as="geometry" />
        </mxCell>
        <mxCell id="Q69quws3nkiRGvcaCu4i-3" value="&lt;h1&gt;Procedure&lt;/h1&gt;&lt;div style=&quot;line-height: 150%;&quot;&gt;&lt;ul style=&quot;line-height: 150%;&quot;&gt;&lt;li&gt;&lt;font style=&quot;font-size: 16px;&quot;&gt;Create an Ansible playbook named `deploy_containers.yml`.&lt;/font&gt;&lt;/li&gt;&lt;li&gt;&lt;font size=&quot;3&quot;&gt;Write the playbook with the following tasks:&lt;/font&gt;&lt;/li&gt;&lt;/ul&gt;&lt;span style=&quot;font-size: medium; background-color: initial;&quot;&gt;&lt;div style=&quot;text-align: justify; line-height: 150%;&quot;&gt;&lt;span style=&quot;background-color: initial;&quot;&gt;&amp;nbsp; &amp;nbsp; &amp;nbsp; &amp;nbsp; &amp;nbsp; &amp;nbsp;- Install Docker and Python Docker module.&lt;/span&gt;&lt;/div&gt;&lt;/span&gt;&lt;span style=&quot;font-size: medium; background-color: initial;&quot;&gt;&lt;div style=&quot;text-align: justify;&quot;&gt;&lt;span style=&quot;background-color: initial;&quot;&gt;&amp;nbsp; &amp;nbsp; &amp;nbsp; &amp;nbsp; &amp;nbsp; &amp;nbsp;- Start the Apache container.&lt;/span&gt;&lt;/div&gt;&lt;/span&gt;&lt;span style=&quot;font-size: medium; background-color: initial;&quot;&gt;&lt;div style=&quot;text-align: justify;&quot;&gt;&lt;span style=&quot;background-color: initial;&quot;&gt;&amp;nbsp; &amp;nbsp; &amp;nbsp; &amp;nbsp; &amp;nbsp; &amp;nbsp;- Start the FTP container.&lt;/span&gt;&lt;/div&gt;&lt;/span&gt;&lt;span style=&quot;font-size: medium; background-color: initial;&quot;&gt;&lt;div style=&quot;text-align: justify;&quot;&gt;&lt;span style=&quot;background-color: initial;&quot;&gt;&amp;nbsp; &amp;nbsp; &amp;nbsp; &amp;nbsp; &amp;nbsp; &amp;nbsp;- Create a bridge network&amp;nbsp;&lt;/span&gt;&lt;/div&gt;&lt;/span&gt;&lt;span style=&quot;font-size: medium; background-color: initial;&quot;&gt;&lt;div style=&quot;text-align: justify;&quot;&gt;&lt;span style=&quot;background-color: initial;&quot;&gt;&amp;nbsp; &amp;nbsp; &amp;nbsp; &amp;nbsp; &amp;nbsp; &amp;nbsp;- Attach containers to the network&lt;/span&gt;&lt;/div&gt;&lt;/span&gt;&lt;ul&gt;&lt;li&gt;&lt;font size=&quot;3&quot;&gt;Run the playbook&lt;br&gt;&lt;/font&gt;&lt;/li&gt;&lt;/ul&gt;&lt;/div&gt;&lt;div&gt;&lt;br&gt;&lt;/div&gt;" style="text;html=1;strokeColor=none;fillColor=none;spacing=5;spacingTop=-20;whiteSpace=wrap;overflow=hidden;rounded=0;" vertex="1" parent="1">
          <mxGeometry x="120" y="477" width="580" height="300" as="geometry" />
        </mxCell>
      </root>
    </mxGraphModel>
  </diagram>
</mxfile>
